<svg width="35" height="37" viewBox="0 0 35 37" fill="none" xmlns="http://www.w3.org/2000/svg">
<path fill-rule="evenodd" clip-rule="evenodd" d="M0 28L2.17677 11.0114L4.06516 10.4956L1.88839 27.4842L0 28Z" fill="#6580E1" fill-opacity="0.741176"/>
<path fill-rule="evenodd" clip-rule="evenodd" d="M2.17773 11.0114L5.59268 10.5158L7.48107 10L4.06613 10.4956L2.17773 11.0114Z" fill="#6580E1" fill-opacity="0.741176"/>
<path fill-rule="evenodd" clip-rule="evenodd" d="M5.5918 10.5158L13.3882 26.0571L15.2766 25.5413L7.48019 10L5.5918 10.5158Z" fill="#6580E1" fill-opacity="0.741176"/>
<path fill-rule="evenodd" clip-rule="evenodd" d="M13.3873 26.0572L10.5156 26.4739L12.404 25.9581L15.2757 25.5414L13.3873 26.0572Z" fill="#6580E1" fill-opacity="0.741176"/>
<path fill-rule="evenodd" clip-rule="evenodd" d="M10.5166 26.4737L8.88477 23.1298L10.7732 22.614L12.405 25.9579L10.5166 26.4737Z" fill="#6580E1" fill-opacity="0.741176"/>
<path fill-rule="evenodd" clip-rule="evenodd" d="M8.88302 23.1298L3.29492 23.9408L5.18331 23.425L10.7714 22.614L8.88302 23.1298Z" fill="#6580E1" fill-opacity="0.741176"/>
<path fill-rule="evenodd" clip-rule="evenodd" d="M3.29588 23.9408L2.85156 27.586L4.73995 27.0702L5.18427 23.425L3.29588 23.9408Z" fill="#6580E1" fill-opacity="0.741176"/>
<path fill-rule="evenodd" clip-rule="evenodd" d="M2.85226 27.5862L0 28.0002L1.88839 27.4844L4.74065 27.0704L2.85226 27.5862Z" fill="#6580E1" fill-opacity="0.741176"/>
<path fill-rule="evenodd" clip-rule="evenodd" d="M3.60156 21.2111L7.67621 20.6198L9.56461 20.104L5.48995 20.6953L3.60156 21.2111Z" fill="#6580E1" fill-opacity="0.741176"/>
<path fill-rule="evenodd" clip-rule="evenodd" d="M7.67438 20.62L3.86914 12.8694L5.75753 12.3536L9.56277 20.1042L7.67438 20.62Z" fill="#6580E1" fill-opacity="0.741176"/>
<path fill-rule="evenodd" clip-rule="evenodd" d="M3.86914 12.8695L4.60646 12.7625L6.49485 12.2467L5.75753 12.3537L3.86914 12.8695Z" fill="#6580E1" fill-opacity="0.741176"/>
<path fill-rule="evenodd" clip-rule="evenodd" d="M4.60829 12.7625L3.60156 21.2114L5.48995 20.6956L6.49668 12.2467L4.60829 12.7625Z" fill="#6580E1" fill-opacity="0.741176"/>
<path d="M0 28.0001L2.17677 11.0115L5.59172 10.5159L13.3881 26.0571L10.5165 26.4739L8.88467 23.13L3.29657 23.9409L2.85226 27.5861L0 28.0001ZM3.6007 21.2113L7.67536 20.6199L3.87011 12.8694L4.60743 12.7624L3.6007 21.2113Z" fill="#D4D0F2"/>
<path fill-rule="evenodd" clip-rule="evenodd" d="M11 15.0989L16.094 0L17.9168 0.435982L12.8228 15.5349L11 15.0989Z" fill="#6580E1" fill-opacity="0.741176"/>
<path fill-rule="evenodd" clip-rule="evenodd" d="M16.0938 0L21.6869 2.04436C22.5656 2.36555 23.2545 2.81465 23.7535 3.39165C24.2689 3.95948 24.5857 4.62168 24.704 5.37824C24.8386 6.12564 24.7556 6.9452 24.4547 7.83695C24.2222 8.52603 23.8372 9.1138 23.2996 9.60028C22.7784 10.0776 22.0954 10.3819 21.2507 10.5133L23.0735 10.9493C23.9182 10.8179 24.6012 10.5136 25.1224 10.0363C25.66 9.54979 26.045 8.96201 26.2775 8.27293C26.5784 7.38119 26.6614 6.56162 26.5268 5.81422C26.4085 5.05766 26.0917 4.39546 25.5763 3.82763C25.0773 3.25063 24.3884 2.80154 23.5097 2.48034L17.9166 0.435982L16.0938 0Z" fill="#6580E1" fill-opacity="0.741176"/>
<path fill-rule="evenodd" clip-rule="evenodd" d="M21.252 10.5133L21.6827 9.23645L23.5055 9.67243L23.0748 10.9493L21.252 10.5133Z" fill="#6580E1" fill-opacity="0.741176"/>
<path fill-rule="evenodd" clip-rule="evenodd" d="M21.6817 9.23645C22.2391 9.75891 22.6372 10.299 22.8758 10.8568C23.1145 11.4145 23.2245 11.9783 23.2056 12.5482C23.1868 13.118 23.0816 13.6867 22.8902 14.2542C22.4024 15.6999 21.598 16.6807 20.4768 17.1968C19.593 17.6022 18.5877 17.6719 17.4609 17.4058L19.2837 17.8417C20.4105 18.1079 21.4158 18.0382 22.2996 17.6327C23.4208 17.1167 24.2252 16.1359 24.713 14.6901C24.9044 14.1227 25.0096 13.554 25.0284 12.9841C25.0473 12.4143 24.9373 11.8505 24.6987 11.2927C24.46 10.735 24.0619 10.1949 23.5045 9.67243L21.6817 9.23645Z" fill="#6580E1" fill-opacity="0.741176"/>
<path fill-rule="evenodd" clip-rule="evenodd" d="M17.461 17.4059C17.1793 17.3394 16.89 17.2519 16.5931 17.1434L11 15.099L12.8228 15.535L18.4159 17.5793C18.7128 17.6879 19.0021 17.7754 19.2838 17.8419L17.461 17.4059Z" fill="#6580E1" fill-opacity="0.741176"/>
<path fill-rule="evenodd" clip-rule="evenodd" d="M14.2441 13.5521L17.6641 14.8022C17.7648 14.839 17.8639 14.8696 17.9613 14.8939L19.7841 15.3299C19.6867 15.3055 19.5876 15.275 19.4869 15.2382L16.0669 13.9881L14.2441 13.5521Z" fill="#6580E1" fill-opacity="0.741176"/>
<path fill-rule="evenodd" clip-rule="evenodd" d="M17.9599 14.8941C18.4713 15.0219 18.9371 14.9777 19.3573 14.7616C19.8741 14.4951 20.2441 14.0309 20.4675 13.3688C20.6909 12.7068 20.6809 12.1036 20.4377 11.5594C20.2063 11.0195 19.7759 10.6345 19.1466 10.4045L15.7266 9.15442L17.5494 9.5904L20.9694 10.8405C21.5987 11.0705 22.0291 11.4555 22.2605 11.9954C22.5037 12.5396 22.5137 13.1427 22.2903 13.8048C22.0669 14.4669 21.6969 14.9311 21.1801 15.1975C20.7599 15.4137 20.2941 15.4578 19.7827 15.3301L17.9599 14.8941Z" fill="#6580E1" fill-opacity="0.741176"/>
<path fill-rule="evenodd" clip-rule="evenodd" d="M15.7279 9.15442L14.2441 13.5524L16.0669 13.9883L17.5507 9.5904L15.7279 9.15442Z" fill="#6580E1" fill-opacity="0.741176"/>
<path fill-rule="evenodd" clip-rule="evenodd" d="M16.541 6.7428L19.8363 7.94728C19.9161 7.97645 19.9947 8.00052 20.0722 8.0195L21.895 8.45548C21.8175 8.4365 21.7389 8.41243 21.6591 8.38326L18.3638 7.17878L16.541 6.7428Z" fill="#6580E1" fill-opacity="0.741176"/>
<path fill-rule="evenodd" clip-rule="evenodd" d="M20.0709 8.01933C20.4774 8.11897 20.8513 8.07816 21.1926 7.89693C21.6034 7.66765 21.8977 7.28955 22.0755 6.76261C22.2533 6.23567 22.2462 5.76256 22.0541 5.34329C21.8621 4.92402 21.5167 4.62323 21.018 4.44093L17.7227 3.23645L19.5455 3.67243L22.8408 4.87691C23.3395 5.05921 23.6849 5.36 23.8769 5.77927C24.069 6.19854 24.0761 6.67165 23.8983 7.19859C23.7205 7.72553 23.4262 8.10363 23.0154 8.33291C22.6741 8.51414 22.3002 8.55495 21.8937 8.45532L20.0709 8.01933Z" fill="#6580E1" fill-opacity="0.741176"/>
<path fill-rule="evenodd" clip-rule="evenodd" d="M17.7239 3.23645L16.541 6.74264L18.3638 7.17862L19.5467 3.67243L17.7239 3.23645Z" fill="#6580E1" fill-opacity="0.741176"/>
<path d="M11 15.0989L16.094 0L21.6871 2.04436C22.5658 2.36555 23.2547 2.81465 23.7537 3.39165C24.2691 3.95948 24.5859 4.62168 24.7042 5.37824C24.8389 6.12564 24.7558 6.9452 24.455 7.83695C24.2225 8.52603 23.8374 9.1138 23.2998 9.60028C22.7786 10.0776 22.0957 10.3819 21.251 10.5133L21.6817 9.23652C22.2391 9.75898 22.6372 10.2991 22.8759 10.8568C23.1146 11.4146 23.2245 11.9784 23.2056 12.5482C23.1868 13.1181 23.0816 13.6868 22.8902 14.2542C22.4025 15.6999 21.598 16.6808 20.4768 17.1968C19.372 17.7037 18.0775 17.6858 16.5931 17.1433L11 15.0989ZM14.243 13.5523L17.663 14.8024C18.2924 15.0324 18.8572 15.0188 19.3575 14.7615C19.8743 14.4951 20.2443 14.0308 20.4677 13.3688C20.6911 12.7067 20.6811 12.1036 20.4379 11.5593C20.2065 11.0194 19.7761 10.6345 19.1467 10.4044L15.7268 9.15438L14.243 13.5523ZM16.5404 6.74261L19.8357 7.94709C20.3345 8.12939 20.787 8.11266 21.1933 7.8969C21.6041 7.66763 21.8984 7.28952 22.0762 6.76258C22.254 6.23564 22.2468 5.76253 22.0548 5.34326C21.8628 4.92399 21.5174 4.6232 21.0186 4.4409L17.7233 3.23642L16.5404 6.74261Z" fill="#D4D0F2"/>
<path fill-rule="evenodd" clip-rule="evenodd" d="M23.7971 36.3554C23.3081 36.2397 22.8332 36.0678 22.3724 35.8398C21.499 35.3956 20.7273 34.762 20.0572 33.9388C19.387 33.1155 18.8682 32.1208 18.5006 30.9544C18.1331 29.7881 17.9679 28.6356 18.0051 27.4971C18.0508 26.3389 18.2823 25.2581 18.6995 24.2548C19.1252 23.2317 19.7133 22.3286 20.4639 21.5453C21.21 20.748 22.0976 20.12 23.1265 19.6615C24.1554 19.2029 25.1348 18.9828 26.0647 19.0011C26.536 19.0073 26.9852 19.0596 27.4122 19.1577L29.3615 19.624C28.9345 19.5258 28.4853 19.4736 28.014 19.4673C27.0841 19.449 26.1047 19.6691 25.0758 20.1277C24.0469 20.5863 23.1593 21.2142 22.4132 22.0116C21.6626 22.7948 21.0745 23.698 20.6488 24.7211C20.2316 25.7244 20.0002 26.8052 19.9545 27.9634C19.9172 29.1019 20.0824 30.2543 20.4499 31.4207C20.8175 32.587 21.3363 33.5818 22.0065 34.4051C22.6766 35.2283 23.4483 35.8619 24.3217 36.3061C24.7826 36.534 25.2574 36.7059 25.7464 36.8217L23.7971 36.3554Z" fill="#C08E36"/>
<path fill-rule="evenodd" clip-rule="evenodd" d="M27.4102 19.1577C27.8371 19.2559 28.2419 19.4 28.6245 19.5901C29.3852 19.9562 30.0052 20.4572 30.4843 21.0931L32.4336 21.5594C31.9545 20.9235 31.3345 20.4225 30.5738 20.0564C30.1912 19.8663 29.7865 19.7222 29.3595 19.624L27.4102 19.1577Z" fill="#C08E36"/>
<path fill-rule="evenodd" clip-rule="evenodd" d="M30.4867 21.0931L28.5117 23.3436L30.461 23.8099L32.4361 21.5594L30.4867 21.0931Z" fill="#C08E36"/>
<path fill-rule="evenodd" clip-rule="evenodd" d="M28.5122 23.3437C27.9941 22.6771 27.3338 22.2342 26.5312 22.0149L28.4806 22.4812C29.2831 22.7004 29.9434 23.1434 30.4615 23.81L28.5122 23.3437Z" fill="#C08E36"/>
<path fill-rule="evenodd" clip-rule="evenodd" d="M26.5306 22.0145C26.4822 22.0005 26.4336 21.9876 26.3848 21.976L28.3341 22.4422C28.3829 22.4539 28.4315 22.4668 28.4799 22.4808L26.5306 22.0145Z" fill="#C08E36"/>
<path fill-rule="evenodd" clip-rule="evenodd" d="M26.3862 21.9765C25.6217 21.7932 24.8103 21.8929 23.9519 22.2755C23.0516 22.6767 22.3272 23.264 21.7789 24.0373C21.2434 24.8048 20.9111 25.6821 20.7821 26.6691C20.666 27.6504 20.7806 28.6891 21.1261 29.7852C21.4715 30.8814 21.9614 31.7609 22.5956 32.4237C23.1869 33.0154 23.8565 33.4026 24.6045 33.5853L26.5538 34.0515C25.8058 33.8688 25.1362 33.4817 24.5449 32.89C23.9107 32.2272 23.4208 31.3476 23.0754 30.2515C22.7299 29.1554 22.6153 28.1167 22.7314 27.1354C22.8604 26.1483 23.1927 25.2711 23.7282 24.5035C24.2766 23.7302 25.0009 23.143 25.9012 22.7417C26.7596 22.3592 27.571 22.2595 28.3356 22.4427L26.3862 21.9765Z" fill="#C08E36"/>
<path fill-rule="evenodd" clip-rule="evenodd" d="M24.6035 33.5854C24.6686 33.6013 24.7342 33.6157 24.8004 33.6285L26.7497 34.0947C26.6835 34.0819 26.6179 34.0676 26.5528 34.0517L24.6035 33.5854Z" fill="#C08E36"/>
<path fill-rule="evenodd" clip-rule="evenodd" d="M24.7988 33.6281C25.6395 33.7823 26.51 33.6588 27.4103 33.2575C28.3235 32.8505 29.0219 32.2508 29.5055 31.4583C29.9847 30.6517 30.2354 29.7947 30.2575 28.8875L32.2068 29.3537C32.1847 30.261 31.934 31.1179 31.4548 31.9246C30.9712 32.7171 30.2728 33.3168 29.3596 33.7238C28.4593 34.125 27.5888 34.2486 26.7481 34.0944L24.7988 33.6281Z" fill="#C08E36"/>
<path fill-rule="evenodd" clip-rule="evenodd" d="M30.2578 28.8875L32.9901 29.04L34.9394 29.5062L32.2071 29.3537L30.2578 28.8875Z" fill="#C08E36"/>
<path fill-rule="evenodd" clip-rule="evenodd" d="M32.9924 29.0402C32.9827 29.8938 32.7946 30.763 32.428 31.6476C32.057 32.5181 31.5197 33.3266 30.8161 34.0728C30.1254 34.8134 29.2656 35.413 28.2366 35.8715C27.2077 36.3301 26.1917 36.5505 25.1887 36.5328C24.7135 36.5215 24.2502 36.4625 23.7988 36.3556L25.7481 36.8219C26.1995 36.9287 26.6628 36.9878 27.138 36.999C28.141 37.0167 29.157 36.7964 30.1859 36.3378C31.2149 35.8792 32.0747 35.2797 32.7654 34.5391C33.469 33.7928 34.0063 32.9843 34.3773 32.1139C34.7439 31.2293 34.932 30.3601 34.9417 29.5064L32.9924 29.0402Z" fill="#C08E36"/>
<path d="M28.2349 35.8714C27.206 36.33 26.19 36.5503 25.187 36.5326C24.1968 36.5092 23.2586 36.2782 22.3724 35.8398C21.499 35.3956 20.7273 34.762 20.0572 33.9388C19.387 33.1156 18.8682 32.1208 18.5006 30.9544C18.1331 29.7881 17.9679 28.6356 18.0051 27.4971C18.0508 26.3389 18.2823 25.2581 18.6995 24.2548C19.1252 23.2317 19.7133 22.3286 20.4639 21.5453C21.21 20.748 22.0976 20.12 23.1265 19.6615C24.1554 19.2029 25.1348 18.9828 26.0647 19.0011C27.0074 19.0136 27.8614 19.21 28.6265 19.5902C29.3872 19.9563 30.0072 20.4573 30.4863 21.0931L28.5113 23.3436C27.9932 22.6771 27.3329 22.2341 26.5304 22.0148C25.7234 21.7815 24.8634 21.8683 23.9502 22.2753C23.0499 22.6765 22.3256 23.2638 21.7772 24.0371C21.2417 24.8046 20.9094 25.6819 20.7804 26.6689C20.6643 27.6502 20.7789 28.6889 21.1244 29.7851C21.4698 30.8812 21.9597 31.7607 22.5939 32.4236C23.2366 33.0667 23.9719 33.4682 24.7997 33.6281C25.6404 33.7823 26.5108 33.6588 27.4112 33.2576C28.3243 32.8506 29.0227 32.2508 29.5064 31.4583C29.9856 30.6517 30.2362 29.7948 30.2584 28.8875L32.9907 29.04C32.981 29.8937 32.7928 30.7629 32.4262 31.6475C32.0552 32.5179 31.5179 33.3264 30.8143 34.0727C30.1236 34.8133 29.2638 35.4128 28.2349 35.8714Z" fill="#FFB367"/>
</svg>
