<svg width="96" height="75" viewBox="0 0 96 75" fill="none" xmlns="http://www.w3.org/2000/svg">
<path fill-rule="evenodd" clip-rule="evenodd" d="M66.3359 26.4877V24.3429L71.8734 20.1806V22.3254L66.3359 26.4877Z" fill="#C08E36" fill-opacity="0.6"/>
<path fill-rule="evenodd" clip-rule="evenodd" d="M66.3369 24.3429C66.3369 14.6857 52.0779 6.12971 33.168 4.44448L38.7054 0.282166C57.6153 1.96739 71.8743 10.5234 71.8743 20.1806L66.3369 24.3429Z" fill="#C08E36" fill-opacity="0.6"/>
<path fill-rule="evenodd" clip-rule="evenodd" d="M33.168 4.44451C21.0656 3.36596 10.8683 5.44123 5.09473 9.60678L10.6322 5.44446C16.4057 1.27891 26.603 -0.796358 38.7055 0.282197L33.168 4.44451Z" fill="#C08E36" fill-opacity="0.6"/>
<path fill-rule="evenodd" clip-rule="evenodd" d="M5.09559 9.60684C1.84795 11.95 0 14.9545 0 18.4311L5.53744 14.2687C5.53744 10.7921 7.38539 7.78764 10.633 5.44452L5.09559 9.60684Z" fill="#C08E36" fill-opacity="0.6"/>
<path fill-rule="evenodd" clip-rule="evenodd" d="M0 18.4311V33.8334L5.53744 29.671V14.2688L0 18.4311Z" fill="#C08E36" fill-opacity="0.6"/>
<path fill-rule="evenodd" clip-rule="evenodd" d="M0 33.8332C0 41.877 9.89414 49.1508 24.1228 52.3324L29.6603 48.1701C15.4316 44.9885 5.53744 37.7147 5.53744 29.6709L0 33.8332Z" fill="#C08E36" fill-opacity="0.6"/>
<path fill-rule="evenodd" clip-rule="evenodd" d="M24.1211 52.3325V54.4659L29.6585 50.3035V48.1702L24.1211 52.3325Z" fill="#C08E36" fill-opacity="0.6"/>
<path fill-rule="evenodd" clip-rule="evenodd" d="M24.1211 54.4657C24.1211 64.1227 38.3799 72.6789 57.29 74.3641L62.8274 70.2018C43.9174 68.5165 29.6585 59.9603 29.6585 50.3033L24.1211 54.4657Z" fill="#C08E36" fill-opacity="0.6"/>
<path fill-rule="evenodd" clip-rule="evenodd" d="M57.292 74.3641C69.3943 75.4427 79.5917 73.3673 85.3653 69.2017L90.9027 65.0394C85.1291 69.205 74.9318 71.2803 62.8294 70.2018L57.292 74.3641Z" fill="#C08E36" fill-opacity="0.6"/>
<path fill-rule="evenodd" clip-rule="evenodd" d="M85.3652 69.2018C88.6129 66.8587 90.4609 63.8542 90.4609 60.3777L95.9983 56.2154C95.9983 59.6919 94.1503 62.6964 90.9027 65.0395L85.3652 69.2018Z" fill="#C08E36" fill-opacity="0.6"/>
<path fill-rule="evenodd" clip-rule="evenodd" d="M90.4629 60.3776V44.9754L96.0003 40.813V56.2153L90.4629 60.3776Z" fill="#C08E36" fill-opacity="0.6"/>
<path fill-rule="evenodd" clip-rule="evenodd" d="M90.4588 44.9754C90.4588 37.0047 80.8776 29.7513 66.3359 26.4877L71.8734 22.3254C86.415 25.5889 95.9962 32.8424 95.9962 40.8131L90.4588 44.9754Z" fill="#C08E36" fill-opacity="0.6"/>
<path fill-rule="evenodd" clip-rule="evenodd" d="M18.0927 44.252C10.7088 41.4875 6.03125 37.6013 6.03125 34.3707L11.5687 30.2084C11.5687 33.439 16.2463 37.3252 23.6301 40.0897L18.0927 44.252Z" fill="#C08E36" fill-opacity="0.6"/>
<path fill-rule="evenodd" clip-rule="evenodd" d="M6.03125 34.3706V28.9528L11.5687 24.7905V30.2083L6.03125 34.3706Z" fill="#C08E36" fill-opacity="0.6"/>
<path fill-rule="evenodd" clip-rule="evenodd" d="M6.03125 28.9528C9.10691 31.4525 13.2267 33.6141 18.0927 35.2529L23.6301 31.0906C18.7641 29.4518 14.6444 27.2902 11.5687 24.7905L6.03125 28.9528Z" fill="#C08E36" fill-opacity="0.6"/>
<path fill-rule="evenodd" clip-rule="evenodd" d="M18.0928 35.253V44.2519L23.6302 40.0896V31.0907L18.0928 35.253Z" fill="#C08E36" fill-opacity="0.6"/>
<path fill-rule="evenodd" clip-rule="evenodd" d="M48.248 37.9403C53.114 37.1687 57.2338 35.7415 60.3095 33.79L65.8469 29.6277C62.7712 31.5792 58.6515 33.0064 53.7855 33.778L48.248 37.9403Z" fill="#C08E36" fill-opacity="0.6"/>
<path fill-rule="evenodd" clip-rule="evenodd" d="M60.3066 33.79V39.2077L65.8441 35.0454V29.6277L60.3066 33.79Z" fill="#C08E36" fill-opacity="0.6"/>
<path fill-rule="evenodd" clip-rule="evenodd" d="M60.3058 39.2078C60.3058 40.5647 59.4807 41.8901 57.9766 43.0785L63.514 38.9162C65.0182 37.7278 65.8433 36.4024 65.8433 35.0455L60.3058 39.2078Z" fill="#C08E36" fill-opacity="0.6"/>
<path fill-rule="evenodd" clip-rule="evenodd" d="M57.9802 43.0785C55.903 44.7196 52.5308 46.0993 48.248 46.9393L53.7855 42.777C58.0682 41.937 61.4404 40.5573 63.5176 38.9162L57.9802 43.0785Z" fill="#C08E36" fill-opacity="0.6"/>
<path fill-rule="evenodd" clip-rule="evenodd" d="M48.248 46.9392V37.9403L53.7855 33.778V42.7769L48.248 46.9392Z" fill="#C08E36" fill-opacity="0.6"/>
<path fill-rule="evenodd" clip-rule="evenodd" d="M42.2177 64.8843C34.8338 62.1196 30.1562 58.2338 30.1562 55.003L35.6937 50.8407C35.6937 54.0715 40.3713 57.9573 47.7551 60.722L42.2177 64.8843Z" fill="#C08E36" fill-opacity="0.6"/>
<path fill-rule="evenodd" clip-rule="evenodd" d="M30.1562 55.0033V53.3977L35.6937 49.2354V50.8409L30.1562 55.0033Z" fill="#C08E36" fill-opacity="0.6"/>
<path fill-rule="evenodd" clip-rule="evenodd" d="M30.1562 53.3977C31.1475 53.5243 32.1502 53.6407 33.1716 53.7318L38.709 49.5694C37.6876 49.4784 36.685 49.362 35.6937 49.2354L30.1562 53.3977Z" fill="#C08E36" fill-opacity="0.6"/>
<path fill-rule="evenodd" clip-rule="evenodd" d="M33.168 53.7317C34.6304 53.862 36.0589 53.9392 37.4611 53.9796L42.9985 49.8173C41.5964 49.7769 40.1679 49.6997 38.7054 49.5694L33.168 53.7317Z" fill="#C08E36" fill-opacity="0.6"/>
<path fill-rule="evenodd" clip-rule="evenodd" d="M37.4639 53.9796C39.0215 54.6881 40.6082 55.3129 42.2168 55.851L47.7543 51.6887C46.1457 51.1506 44.559 50.5258 43.0013 49.8173L37.4639 53.9796Z" fill="#C08E36" fill-opacity="0.6"/>
<path fill-rule="evenodd" clip-rule="evenodd" d="M42.2139 55.8509V64.8844L47.7513 60.7221V51.6886L42.2139 55.8509Z" fill="#C08E36" fill-opacity="0.6"/>
<path fill-rule="evenodd" clip-rule="evenodd" d="M42.214 47.7029C39.2191 47.8882 36.1955 47.8438 33.168 47.5707L38.7054 43.4084C41.7329 43.6815 44.7565 43.7259 47.7515 43.5406L42.214 47.7029Z" fill="#C08E36" fill-opacity="0.6"/>
<path fill-rule="evenodd" clip-rule="evenodd" d="M33.1672 47.5707C30.1397 47.3041 27.1161 46.8096 24.1211 46.0905L29.6585 41.9282C32.6535 42.6473 35.6771 43.1418 38.7046 43.4083L33.1672 47.5707Z" fill="#C08E36" fill-opacity="0.6"/>
<path fill-rule="evenodd" clip-rule="evenodd" d="M24.1211 46.0907V36.9304L29.6585 32.7681V41.9284L24.1211 46.0907Z" fill="#C08E36" fill-opacity="0.6"/>
<path fill-rule="evenodd" clip-rule="evenodd" d="M24.1211 36.9304C27.1205 37.5969 30.1424 38.0643 33.1672 38.3295L38.7046 34.1672C35.6798 33.902 32.658 33.4346 29.6585 32.7681L24.1211 36.9304Z" fill="#C08E36" fill-opacity="0.6"/>
<path fill-rule="evenodd" clip-rule="evenodd" d="M33.168 38.3296C36.1928 38.6035 39.2146 38.6747 42.214 38.5428L47.7515 34.3804C44.752 34.5124 41.7302 34.4412 38.7054 34.1672L33.168 38.3296Z" fill="#C08E36" fill-opacity="0.6"/>
<path fill-rule="evenodd" clip-rule="evenodd" d="M42.2139 38.5426V47.7029L47.7513 43.5406V34.3802L42.2139 38.5426Z" fill="#C08E36" fill-opacity="0.6"/>
<path fill-rule="evenodd" clip-rule="evenodd" d="M66.3402 68.3353C60.3416 68.6994 54.2466 68.1562 48.248 66.723L53.7855 62.5607C59.784 63.9939 65.8791 64.5371 71.8776 64.173L66.3402 68.3353Z" fill="#C08E36" fill-opacity="0.6"/>
<path fill-rule="evenodd" clip-rule="evenodd" d="M48.248 66.7233V57.5398L53.7855 53.3775V62.5609L48.248 66.7233Z" fill="#C08E36" fill-opacity="0.6"/>
<path fill-rule="evenodd" clip-rule="evenodd" d="M48.248 57.5398C51.2465 58.219 54.2687 58.6941 57.2941 58.9621L62.8316 54.7998C59.8061 54.5318 56.784 54.0567 53.7855 53.3775L48.248 57.5398Z" fill="#C08E36" fill-opacity="0.6"/>
<path fill-rule="evenodd" clip-rule="evenodd" d="M57.292 58.962C60.3166 59.2361 63.3388 59.307 66.3381 59.1751L71.8755 55.0128C68.8762 55.1447 65.854 55.0737 62.8294 54.7997L57.292 58.962Z" fill="#C08E36" fill-opacity="0.6"/>
<path fill-rule="evenodd" clip-rule="evenodd" d="M66.3359 59.1751V68.3355L71.8734 64.1732V55.0128L66.3359 59.1751Z" fill="#C08E36" fill-opacity="0.6"/>
<path fill-rule="evenodd" clip-rule="evenodd" d="M84.4289 59.8403C84.4289 61.1972 83.6038 62.5226 82.0996 63.711L87.637 59.5487C89.1412 58.3603 89.9663 57.0349 89.9663 55.678L84.4289 59.8403Z" fill="#C08E36" fill-opacity="0.6"/>
<path fill-rule="evenodd" clip-rule="evenodd" d="M82.1013 63.711C80.0241 65.352 76.6519 66.7316 72.3691 67.5718L77.9066 63.4095C82.1893 62.5693 85.5615 61.1897 87.6387 59.5486L82.1013 63.711Z" fill="#C08E36" fill-opacity="0.6"/>
<path fill-rule="evenodd" clip-rule="evenodd" d="M72.3691 67.5716V58.5726L77.9066 54.4103V63.4093L72.3691 67.5716Z" fill="#C08E36" fill-opacity="0.6"/>
<path fill-rule="evenodd" clip-rule="evenodd" d="M72.3691 58.5726C77.2351 57.8012 81.3549 56.3739 84.4306 54.4223L89.968 50.2599C86.8923 52.2116 82.7726 53.6389 77.9066 54.4103L72.3691 58.5726Z" fill="#C08E36" fill-opacity="0.6"/>
<path fill-rule="evenodd" clip-rule="evenodd" d="M84.4277 54.4223V59.8402L89.9652 55.6778V50.2599L84.4277 54.4223Z" fill="#C08E36" fill-opacity="0.6"/>
<path d="M66.3378 26.4875V24.3427C66.3378 14.6855 52.0788 6.12954 33.1689 4.44431C14.2588 2.75906 0 8.77359 0 18.4308V33.833C0 41.8769 9.89414 49.1506 24.1228 52.3322V54.4655C24.1228 64.1225 38.3817 72.6787 57.2917 74.364C76.2016 76.0492 90.4606 70.0345 90.4606 60.3775V44.9752C90.4606 37.0046 80.8794 29.7511 66.3378 26.4875ZM18.0921 44.2518C10.7083 41.4873 6.03071 37.6011 6.03071 34.3705V28.9528C9.10637 31.4525 13.2261 33.614 18.0921 35.2528V44.2518ZM48.2457 37.9401C53.1117 37.1685 57.2314 35.7413 60.3071 33.7898V39.2075C60.3071 42.4381 55.6297 45.4907 48.2457 46.939V37.9401ZM42.215 64.8842C34.8311 62.1196 30.1535 58.2337 30.1535 55.003V53.3974C31.1448 53.524 32.1475 53.6404 33.1689 53.7315C34.6313 53.8618 36.0599 53.939 37.462 53.9793C39.0197 54.6878 40.6064 55.3127 42.215 55.8507V64.8842ZM42.215 47.7027C39.22 47.888 36.1964 47.8437 33.1689 47.5706C30.1414 47.3041 27.1178 46.8095 24.1228 46.0904V36.9301C27.1223 37.5966 30.1441 38.064 33.1689 38.3292C36.1937 38.6031 39.2155 38.6744 42.215 38.5424V47.7027ZM66.3378 68.3352C60.3393 68.6993 54.2442 68.1561 48.2457 66.7229V57.5395C51.2441 58.2186 54.2663 58.6937 57.2917 58.9617C60.3163 59.2358 63.3385 59.3067 66.3378 59.1748V68.3352ZM84.4299 59.84C84.4299 63.0708 79.7525 66.1229 72.3685 67.5715V58.5725C77.2345 57.8011 81.3543 56.3738 84.4299 54.4221V59.84Z" fill="#FFB367"/>
</svg>
