<svg width="430" height="447" viewBox="0 0 430 447" fill="none" xmlns="http://www.w3.org/2000/svg">
<g filter="url(#filter0_f_155_4292)">
<circle cx="215.5" cy="223.5" r="124.5" fill="#D4D0F2"/>
</g>
<path fill-rule="evenodd" clip-rule="evenodd" d="M183.126 222.069V184.982L195.805 174.797V211.884L183.126 222.069Z" fill="#6580E1" fill-opacity="0.741176"/>
<path fill-rule="evenodd" clip-rule="evenodd" d="M183.126 184.982C183.126 177.605 185.991 171.03 191.09 166.704L203.768 156.519C198.669 160.845 195.805 167.419 195.805 174.797L183.126 184.982Z" fill="#6580E1" fill-opacity="0.741176"/>
<path fill-rule="evenodd" clip-rule="evenodd" d="M191.09 166.704C191.192 166.618 191.295 166.532 191.398 166.448L204.076 156.263C203.973 156.347 203.87 156.433 203.768 156.519L191.09 166.704Z" fill="#6580E1" fill-opacity="0.741176"/>
<path fill-rule="evenodd" clip-rule="evenodd" d="M191.397 166.448C196.465 162.311 203.248 160.681 210.315 161.916L222.994 151.731C215.927 150.496 209.144 152.126 204.076 156.263L191.397 166.448Z" fill="#6580E1" fill-opacity="0.741176"/>
<path fill-rule="evenodd" clip-rule="evenodd" d="M210.315 161.916C217.526 163.175 224.442 167.314 229.541 173.421L242.22 163.236C237.121 157.129 230.205 152.99 222.994 151.73L210.315 161.916Z" fill="#6580E1" fill-opacity="0.741176"/>
<path fill-rule="evenodd" clip-rule="evenodd" d="M229.541 173.421C234.64 179.528 237.505 187.104 237.505 194.481L250.183 184.295C250.183 176.918 247.319 169.343 242.22 163.236L229.541 173.421Z" fill="#6580E1" fill-opacity="0.741176"/>
<path fill-rule="evenodd" clip-rule="evenodd" d="M237.505 194.481V231.568L250.183 221.383V184.296L237.505 194.481Z" fill="#6580E1" fill-opacity="0.741176"/>
<path fill-rule="evenodd" clip-rule="evenodd" d="M237.505 231.568C237.505 238.945 234.64 245.52 229.541 249.846L242.22 239.66C247.319 235.335 250.183 228.76 250.183 221.383L237.505 231.568Z" fill="#6580E1" fill-opacity="0.741176"/>
<path fill-rule="evenodd" clip-rule="evenodd" d="M229.542 249.846C229.44 249.932 229.337 250.018 229.233 250.102L241.912 239.917C242.015 239.832 242.118 239.747 242.22 239.66L229.542 249.846Z" fill="#6580E1" fill-opacity="0.741176"/>
<path fill-rule="evenodd" clip-rule="evenodd" d="M229.233 250.102C224.165 254.239 217.382 255.869 210.315 254.634L222.994 244.449C230.061 245.683 236.844 244.054 241.912 239.917L229.233 250.102Z" fill="#6580E1" fill-opacity="0.741176"/>
<path fill-rule="evenodd" clip-rule="evenodd" d="M210.316 254.634C203.104 253.375 196.189 249.236 191.09 243.129L203.768 232.944C208.867 239.051 215.783 243.189 222.994 244.449L210.316 254.634Z" fill="#6580E1" fill-opacity="0.741176"/>
<path fill-rule="evenodd" clip-rule="evenodd" d="M191.09 243.129C185.991 237.022 183.126 229.446 183.126 222.069L195.805 211.884C195.805 219.261 198.669 226.836 203.768 232.944L191.09 243.129Z" fill="#6580E1" fill-opacity="0.741176"/>
<path fill-rule="evenodd" clip-rule="evenodd" d="M255.631 234.734C255.631 233.505 255.154 232.242 254.304 231.225L266.982 221.039C267.832 222.057 268.31 223.32 268.31 224.549L255.631 234.734Z" fill="#6580E1" fill-opacity="0.741176"/>
<path fill-rule="evenodd" clip-rule="evenodd" d="M254.304 231.225C253.454 230.207 252.301 229.517 251.1 229.307L263.778 219.122C264.98 219.332 266.133 220.021 266.982 221.039L254.304 231.225Z" fill="#6580E1" fill-opacity="0.741176"/>
<path fill-rule="evenodd" clip-rule="evenodd" d="M251.099 229.307C249.945 229.105 248.837 229.362 247.998 230.021L260.677 219.835C261.515 219.177 262.624 218.92 263.777 219.122L251.099 229.307Z" fill="#6580E1" fill-opacity="0.741176"/>
<path fill-rule="evenodd" clip-rule="evenodd" d="M247.998 230.021C247.963 230.048 247.929 230.076 247.895 230.105L260.573 219.92C260.607 219.891 260.642 219.863 260.676 219.835L247.998 230.021Z" fill="#6580E1" fill-opacity="0.741176"/>
<path fill-rule="evenodd" clip-rule="evenodd" d="M247.895 230.105C247.045 230.826 246.567 231.922 246.567 233.151L259.246 222.966C259.246 221.736 259.723 220.641 260.573 219.92L247.895 230.105Z" fill="#6580E1" fill-opacity="0.741176"/>
<path fill-rule="evenodd" clip-rule="evenodd" d="M246.567 233.151C246.567 242.988 242.748 251.754 235.949 257.521L248.628 247.336C255.426 241.568 259.246 232.802 259.246 222.966L246.567 233.151Z" fill="#6580E1" fill-opacity="0.741176"/>
<path fill-rule="evenodd" clip-rule="evenodd" d="M235.95 257.521C235.814 257.637 235.677 257.751 235.539 257.863L248.218 247.678C248.356 247.565 248.492 247.451 248.628 247.336L235.95 257.521Z" fill="#6580E1" fill-opacity="0.741176"/>
<path fill-rule="evenodd" clip-rule="evenodd" d="M235.539 257.863C228.782 263.379 219.738 265.552 210.315 263.906L222.994 253.721C232.416 255.367 241.461 253.194 248.217 247.678L235.539 257.863Z" fill="#6580E1" fill-opacity="0.741176"/>
<path fill-rule="evenodd" clip-rule="evenodd" d="M210.315 263.906C200.7 262.226 191.479 256.709 184.681 248.566L197.359 238.38C204.158 246.523 213.379 252.041 222.993 253.721L210.315 263.906Z" fill="#6580E1" fill-opacity="0.741176"/>
<path fill-rule="evenodd" clip-rule="evenodd" d="M184.682 248.566C177.883 240.423 174.063 230.322 174.063 220.486L186.742 210.301C186.742 220.137 190.561 230.237 197.36 238.38L184.682 248.566Z" fill="#6580E1" fill-opacity="0.741176"/>
<path fill-rule="evenodd" clip-rule="evenodd" d="M174.063 220.486C174.063 219.257 173.585 217.994 172.735 216.976L185.414 206.791C186.264 207.809 186.741 209.071 186.741 210.301L174.063 220.486Z" fill="#6580E1" fill-opacity="0.741176"/>
<path fill-rule="evenodd" clip-rule="evenodd" d="M172.736 216.976C171.886 215.958 170.733 215.268 169.531 215.059L182.21 204.873C183.412 205.083 184.564 205.773 185.414 206.791L172.736 216.976Z" fill="#6580E1" fill-opacity="0.741176"/>
<path fill-rule="evenodd" clip-rule="evenodd" d="M169.532 215.059C168.378 214.857 167.269 215.114 166.431 215.772L179.109 205.587C179.948 204.928 181.056 204.672 182.21 204.873L169.532 215.059Z" fill="#6580E1" fill-opacity="0.741176"/>
<path fill-rule="evenodd" clip-rule="evenodd" d="M166.431 215.772C166.396 215.8 166.361 215.828 166.327 215.857L179.006 205.671C179.04 205.643 179.074 205.614 179.109 205.587L166.431 215.772Z" fill="#6580E1" fill-opacity="0.741176"/>
<path fill-rule="evenodd" clip-rule="evenodd" d="M166.327 215.857C165.477 216.578 165 217.673 165 218.903L177.679 208.718C177.679 207.488 178.156 206.392 179.006 205.671L166.327 215.857Z" fill="#6580E1" fill-opacity="0.741176"/>
<path fill-rule="evenodd" clip-rule="evenodd" d="M165 218.903C165.014 230.394 169.191 242.199 176.724 252.035L189.403 241.85C181.87 232.014 177.692 220.209 177.679 208.718L165 218.903Z" fill="#6580E1" fill-opacity="0.741176"/>
<path fill-rule="evenodd" clip-rule="evenodd" d="M176.725 252.035C184.258 261.871 194.612 269.04 205.784 272.154L218.463 261.969C207.29 258.855 196.936 251.686 189.403 241.849L176.725 252.035Z" fill="#6580E1" fill-opacity="0.741176"/>
<path fill-rule="evenodd" clip-rule="evenodd" d="M205.784 272.155V290.93L218.463 280.745V261.969L205.784 272.155Z" fill="#6580E1" fill-opacity="0.741176"/>
<path fill-rule="evenodd" clip-rule="evenodd" d="M205.784 290.93C205.784 292.159 206.262 293.422 207.111 294.44L219.79 284.255C218.94 283.237 218.463 281.974 218.463 280.745L205.784 290.93Z" fill="#6580E1" fill-opacity="0.741176"/>
<path fill-rule="evenodd" clip-rule="evenodd" d="M207.111 294.44C207.961 295.457 209.114 296.147 210.316 296.357L222.994 286.172C221.792 285.962 220.64 285.272 219.79 284.255L207.111 294.44Z" fill="#6580E1" fill-opacity="0.741176"/>
<path fill-rule="evenodd" clip-rule="evenodd" d="M210.315 296.357C211.469 296.559 212.578 296.302 213.416 295.644L226.095 285.459C225.256 286.117 224.148 286.374 222.994 286.172L210.315 296.357Z" fill="#6580E1" fill-opacity="0.741176"/>
<path fill-rule="evenodd" clip-rule="evenodd" d="M213.416 295.644C213.451 295.617 213.485 295.589 213.519 295.56L226.198 285.375C226.164 285.403 226.13 285.431 226.095 285.459L213.416 295.644Z" fill="#6580E1" fill-opacity="0.741176"/>
<path fill-rule="evenodd" clip-rule="evenodd" d="M213.52 295.56C214.369 294.839 214.847 293.743 214.847 292.513L227.525 282.328C227.525 283.557 227.048 284.653 226.198 285.375L213.52 295.56Z" fill="#6580E1" fill-opacity="0.741176"/>
<path fill-rule="evenodd" clip-rule="evenodd" d="M214.847 292.513V273.738L227.525 263.552V282.328L214.847 292.513Z" fill="#6580E1" fill-opacity="0.741176"/>
<path fill-rule="evenodd" clip-rule="evenodd" d="M214.847 273.738C224.902 274.448 234.294 271.642 241.563 265.821L254.242 255.636C246.972 261.457 237.58 264.262 227.525 263.552L214.847 273.738Z" fill="#6580E1" fill-opacity="0.741176"/>
<path fill-rule="evenodd" clip-rule="evenodd" d="M241.563 265.821C242.371 265.175 243.153 264.491 243.906 263.77L256.585 253.585C255.831 254.305 255.05 254.989 254.242 255.636L241.563 265.821Z" fill="#6580E1" fill-opacity="0.741176"/>
<path fill-rule="evenodd" clip-rule="evenodd" d="M243.906 263.77C251.439 256.566 255.617 246.221 255.631 234.734L268.309 224.549C268.295 236.035 264.118 246.381 256.585 253.585L243.906 263.77Z" fill="#6580E1" fill-opacity="0.741176"/>
<path d="M183.126 222.069V184.982C183.126 177.605 185.991 171.03 191.09 166.704C196.189 162.379 203.104 160.656 210.315 161.916C217.526 163.175 224.442 167.314 229.541 173.421C234.64 179.528 237.505 187.104 237.505 194.481V231.568C237.505 238.945 234.64 245.52 229.541 249.846C224.442 254.171 217.526 255.894 210.315 254.634C203.104 253.375 196.189 249.236 191.09 243.129C185.991 237.022 183.126 229.446 183.126 222.069ZM255.631 234.734C255.631 233.505 255.153 232.242 254.303 231.224C253.454 230.207 252.301 229.517 251.099 229.307C249.897 229.097 248.745 229.384 247.895 230.105C247.045 230.826 246.568 231.922 246.568 233.151C246.568 242.987 242.748 251.754 235.95 257.521C229.151 263.289 219.93 265.585 210.315 263.906C200.701 262.226 191.48 256.709 184.681 248.566C177.883 240.423 174.063 230.322 174.063 220.486C174.063 219.256 173.586 217.994 172.736 216.976C171.886 215.958 170.733 215.268 169.532 215.058C168.33 214.849 167.177 215.136 166.327 215.857C165.477 216.578 165 217.673 165 218.903C165.014 230.394 169.191 242.199 176.724 252.035C184.258 261.871 194.612 269.04 205.784 272.154V290.93C205.784 292.159 206.261 293.422 207.111 294.44C207.961 295.458 209.114 296.147 210.315 296.357C211.517 296.567 212.67 296.28 213.52 295.56C214.369 294.838 214.847 293.743 214.847 292.513V273.738C226.019 274.526 236.373 270.975 243.906 263.77C251.44 256.566 255.617 246.221 255.631 234.734Z" fill="#ADA8D5"/>
<defs>
<filter id="filter0_f_155_4292" x="-8" y="0" width="447" height="447" filterUnits="userSpaceOnUse" color-interpolation-filters="sRGB">
<feFlood flood-opacity="0" result="BackgroundImageFix"/>
<feBlend mode="normal" in="SourceGraphic" in2="BackgroundImageFix" result="shape"/>
<feGaussianBlur stdDeviation="49.5" result="effect1_foregroundBlur_155_4292"/>
</filter>
</defs>
</svg>
